<svg id="Layer_1" data-name="Layer 1" xmlns="http://www.w3.org/2000/svg" viewBox="0 0 518.52 513.38"><defs><style>.cls-1{fill:#7289da;}</style></defs><path class="cls-1" d="M55.28,185.06a40.42,40.42,0,0,1,.14-4.26,6.7,6.7,0,0,0,.11-1.05c0,.17-.29,1.78-.06.41.14-.79.28-1.57.45-2.35A39.73,39.73,0,0,1,57,174c.22-.67.45-1.34.7-2a5.08,5.08,0,0,1,.39-1c-.92,1.31-.26.61,0,.08a44.51,44.51,0,0,1,4.42-7.58,6.39,6.39,0,0,0,.64-.86c-.09.2-1.06,1.28-.18.27.46-.54.91-1.09,1.39-1.62a40.7,40.7,0,0,1,3-3c.52-.48,1.07-.93,1.61-1.39.3-.27,1-1-.27.18a8.48,8.48,0,0,1,.85-.63A42.3,42.3,0,0,1,73.3,154a16.27,16.27,0,0,1,3.57-1.77c-1.89.49.24-.07.77-.26.88-.31,1.78-.59,2.67-.84A46.53,46.53,0,0,1,85.13,150c.25,0,1.55-.18.52-.08s.06,0,.22,0c1-.09,2-.17,3-.21,1.54-.06,3.08,0,4.62,0,.82,0,1.64.11,2.46.19.41,0,.82.09,1.23.13.94.08-1.3-.22.17,0a76.24,76.24,0,0,1,10.1,2.35q2.28.71,4.51,1.54l2.38.92c1.33.53.24.09,0,0l1.46.64a134.25,134.25,0,0,1,18.08,10.08c11.66,7.53,22.75,16,35.13,22.39,13.91,7.14,28.84,10.72,44.32,12.32a119.72,119.72,0,0,0,22.39.57,72.33,72.33,0,0,0,23.15-5.81c12.46-5.41,23.08-14,34.7-20.91q4.42-2.62,9-4.94,2.29-1.16,4.62-2.24c.78-.37,1.56-.72,2.34-1.07l1.17-.52.88-.38.58-.24,1.19-.48,2.09-.83c1.8-.7,3.61-1.36,5.43-2q4.84-1.69,9.8-3.1a190.68,190.68,0,0,1,20.42-4.62c1.59-.27,3.19-.53,4.78-.76.44-.06,2.88-.38,1.21-.17l3.2-.4q5.15-.59,10.29-.92a155.41,155.41,0,0,1,21-.31c.76.05,1.51.13,2.27.2,1.47.15.22,0-.06,0,.42.07.85.13,1.27.21,1.83.35,3.53.94,5.3,1.45,1.09.31-1.06-.54-.15-.08l1,.47c.64.34,1.27.7,1.88,1.09.3.2.59.42.9.61.87.55-1-.88-.23-.17.6.56,1.22,1.07,1.78,1.66.09.11.69.81.71.81s-1-1.5-.2-.25c.39.6.75,1.2,1.11,1.82.65,1.13-.42-1.36.17.4a15.37,15.37,0,0,1,.56,2.32c.66,3.88,5.64,6.4,9.23,5.24,4.18-1.35,5.95-5.07,5.24-9.22-1.26-7.36-6.89-13.7-13.34-17.13-7.05-3.75-15.11-4.56-23-4.6a222.56,222.56,0,0,0-44.66,4.33,185.49,185.49,0,0,0-42.06,13.83,158.45,158.45,0,0,0-18.7,10.36c-5.88,3.77-11.6,7.8-17.58,11.41a102,102,0,0,1-9.24,5c-.75.36-1.5.68-2.25,1-1,.47,1.13-.43.09,0l-1.15.46c-1.64.62-3.3,1.18-5,1.66s-3.52.9-5.31,1.23c-.35.06-3,.47-1.41.26-1.14.15-2.28.26-3.43.35a96.13,96.13,0,0,1-11.76.17c-3.78-.16-7.55-.46-11.3-.87l-2.71-.32c-1.2-.14,1.15.17,0,0l-1.35-.19c-2-.31-4-.65-6-1.05-3.67-.72-7.31-1.6-10.89-2.68-1.73-.52-3.46-1.09-5.16-1.7-.85-.31-1.7-.63-2.54-1-.43-.16-.84-.34-1.26-.51,1.58.64-.39-.17-.57-.25-13.11-5.84-24.66-14.5-36.55-22.42-12.15-8.1-25.16-15.48-39.55-18.68s-30-2.18-42.46,6.09c-11.08,7.35-19.48,19.17-22,32.32a49.93,49.93,0,0,0-1,10.2c.06,3.92,3.4,7.68,7.5,7.5a7.62,7.62,0,0,0,7.5-7.5Z" transform="translate(-34.39 -32.69)"/><path class="cls-1" d="M270.22,298.43a70.44,70.44,0,0,1,12.37-6.72l-1.79.75c9.16-3.83,18.91-5.91,28.71-7.24l-2,.27c7.58-1,15.2-1.59,22.82-2.14,8.22-.58,16.5-1.06,24.69,0l-2-.27a50.3,50.3,0,0,1,12.58,3.35l-1.79-.76c6.37,2.75,12,6.87,17.68,10.74,6.21,4.2,12.76,7.91,20.05,9.87,15.06,4,30.73,1.12,45.61-2.19,8.09-1.79,16.16-3.75,24.37-4.87l-2,.27a103.41,103.41,0,0,1,27.17,0l-2-.27a104.07,104.07,0,0,1,21.52,5.33,7.55,7.55,0,0,0,5.78-.76,7.63,7.63,0,0,0,3.45-4.48c1-4.23-1.29-7.78-5.24-9.22a108.53,108.53,0,0,0-37.13-6.51c-12.49,0-24.69,2.63-36.81,5.36-6.44,1.45-12.89,2.88-19.43,3.78l2-.27a73.63,73.63,0,0,1-19,.36l2,.26a48,48,0,0,1-12.07-3.22l1.79.76c-8.33-3.55-15.29-9.45-23-14.12a58.45,58.45,0,0,0-13.84-6.24,68.15,68.15,0,0,0-16.07-2.45c-9.49-.44-19.07.5-28.51,1.31a199,199,0,0,0-28.55,4.13c-10.21,2.4-20.3,6.27-29,12.22A8,8,0,0,0,259.2,290a7.67,7.67,0,0,0,.76,5.78c2.07,3.22,6.8,5.07,10.26,2.69Z" transform="translate(-34.39 -32.69)"/><path class="cls-1" d="M227.29,92.68a308.45,308.45,0,0,1,29.18-16.44c5-2.48,10.1-4.79,15.23-7,.54-.24.78-.66-.25.1a3.48,3.48,0,0,1,.77-.32c.6-.26,1.2-.5,1.81-.75,1.37-.57,2.76-1.12,4.14-1.67,2.6-1,5.22-2,7.84-2.95q7.88-2.85,15.91-5.26c2.73-.82,5.47-1.6,8.24-2.26,1.3-.31,2.6-.59,3.91-.85l2-.35,1.12-.17c1.08-.19-1.88.2,0,0a51.47,51.47,0,0,1,8.42-.28c.65,0,1.29.12,1.94.16.86.06-.56-.06-.61-.09a5.85,5.85,0,0,0,1.11.18,32.92,32.92,0,0,1,4.25,1c1,.31,1.95.82,2.95,1.08-.13,0-1.69-.75-.56-.22l.61.29c.62.28,1.22.59,1.82.9,2,1,4,2.23,5.88,3.46,7.86,5,15.49,11,24.77,13.23,11.14,2.66,21.86-.75,31.58-6.2,4.37-2.45,8.55-5.24,12.83-7.86,2.15-1.32,4.33-2.59,6.57-3.75,1.11-.58,2.23-1.12,3.37-1.65a9.37,9.37,0,0,0,1.71-.76c-1.07.78-.88.36-.31.14l1.24-.49a90.76,90.76,0,0,1,15.41-4.44c1.23-.25,2.46-.47,3.7-.67a14.65,14.65,0,0,0,1.86-.28c-1.6.44-.91.12-.4.06l1.34-.16q4-.47,8.07-.64a133.9,133.9,0,0,1,15.9.28c1.42.11,2.84.23,4.25.38a23.82,23.82,0,0,1,4.39.52c-1.43-.45-.74-.11-.25,0l1.17.17,2,.31c1.46.23,2.91.47,4.36.74a353.34,353.34,0,0,1,34.36,8.41c2.84.81,5.67,1.64,8.5,2.46,3.77,1.1,8.34-1.33,9.23-5.24a7.65,7.65,0,0,0-5.24-9.22c-22.93-6.68-46.28-13.36-70.33-13.87a118.25,118.25,0,0,0-33.71,3.91A95.71,95.71,0,0,0,412.8,42.9a141.22,141.22,0,0,0-13.15,7.66,114.94,114.94,0,0,1-12.95,7.38l-.88.4c-1.28.58.42-.23.46-.2a8.09,8.09,0,0,0-1.57.6,37.87,37.87,0,0,1-3.62,1.12c-.53.13-1.07.26-1.61.36-.35.07-2.11.34-.86.18s-.85.05-1.12.07c-.63,0-1.27.05-1.91,0s-1.12,0-1.69-.07a4.52,4.52,0,0,0-.93-.09c.11,0,1.93.32.67.09a31.92,31.92,0,0,1-3.22-.73c-1.06-.3-2.08-.68-3.11-1.06-1.23-.46,1.48.67,0,0-.61-.27-1.2-.56-1.79-.86A116.1,116.1,0,0,1,354,50.6a83,83,0,0,0-11.75-6.92,45.75,45.75,0,0,0-18.05-4.26c-11.85-.3-23.62,3.5-34.74,7.2a314.36,314.36,0,0,0-62.56,28.7c-2.4,1.43-4.77,2.91-7.13,4.41-3.3,2.1-4.94,6.76-2.69,10.26,2.13,3.31,6.72,5,10.26,2.69Z" transform="translate(-34.39 -32.69)"/><path class="cls-1" d="M48.33,392.19c.32-.54.64-1.08,1-1.6.17-.26.36-.51.54-.77.71-1-.21.31-.33.41,1-.85,1.84-2.09,2.85-3,.45-.42.92-.8,1.39-1.2,1-.81-.29.25-.42.32a7.44,7.44,0,0,0,.75-.54,38.53,38.53,0,0,1,3.57-2.21c1.11-.61,2.25-1.15,3.4-1.69.91-.42,0,.31-.47.19a4.58,4.58,0,0,0,.89-.36c.68-.27,1.36-.52,2-.77,2.61-.93,5.28-1.71,8-2.38,5.54-1.4,11.19-2.46,16.82-3.44,1.46-.25,2.91-.5,4.38-.72l2.2-.33c1.38-.2-.14.05-.34.05a15.5,15.5,0,0,0,1.65-.21c3.11-.37,6.23-.64,9.36-.75a76.18,76.18,0,0,1,8.94.17c.8.06,1.6.15,2.4.23s.88-.22-.41-.06a5.9,5.9,0,0,1,1,.16c1.47.25,2.94.55,4.39.92s2.7.74,4,1.21c.67.23,1.32.49,2,.74,1,.38-1.27-.59-.34-.13.4.2.8.37,1.2.56a39.25,39.25,0,0,1,4,2.23c.57.36,1.12.73,1.66,1.12l.77.56c.76.53-1.24-1-.2-.16,8.4,6.95,14.2,16.26,21.66,24.1a50.41,50.41,0,0,0,13.55,10.49A45.7,45.7,0,0,0,191.4,420c14-.21,27.19-5.4,39.77-11,11.91-5.28,23.4-11.42,35.19-16.94q4.29-2,8.64-3.89c1.28-.55,0,0-.21.09a9.85,9.85,0,0,1,1.06-.44L278,387q2.38-.94,4.79-1.83a124.93,124.93,0,0,1,18.58-5.29q2.24-.45,4.5-.78a8.83,8.83,0,0,0,1.13-.17c0,.07-1.82.22-.31.06.81-.09,1.63-.19,2.44-.26a89.67,89.67,0,0,1,9.27-.36q4.5,0,9,.54l1.08.13c1.38.15-.17,0-.37-.06.69.17,1.45.21,2.16.33,1.62.26,3.23.56,4.83.91,3,.66,6,1.46,9,2.4,1.39.45,2.77.92,4.13,1.43.69.26,1.37.52,2,.79l1,.41c1.74.7-1.49-.68.22.1a97.63,97.63,0,0,1,15.93,8.93c.59.41,1.18.84,1.77,1.27.29.21.58.44.88.65.84.62-1-.83-.22-.17q1.82,1.44,3.58,2.95c3,2.57,7.73,3.13,10.6,0,2.59-2.81,3.17-7.86,0-10.6-20-17.32-46.74-26.71-73.23-24.78-27.53,2-51.78,15.58-76.12,27.36q-4.43,2.14-8.9,4.18c-1.4.63-2.81,1.26-4.22,1.87-.06,0-1.8.77-.69.3.94-.4-.21.08-.44.18l-2.39,1a100.85,100.85,0,0,1-19.13,5.84,10.36,10.36,0,0,1-2.58.42s1.89-.21.28-.05l-1.14.12c-1.71.16-3.42.23-5.13.22-.76,0-1.51,0-2.26-.08-.37,0-2-.39-2.25-.19.31-.23,1.42.23.33,0L185,404.6c-.92-.17-1.83-.38-2.73-.62-.73-.19-1.44-.41-2.15-.65l-1.07-.39c-1.45-.51.16.12.22.11-.41.07-1.52-.71-1.89-.9-.7-.36-1.39-.75-2.06-1.16s-1.06-.66-1.58-1c-.26-.17-.51-.35-.76-.53s-1.33-1.09-.37-.26-.69-.57-.88-.73c-.54-.46-1.07-.93-1.58-1.41-8.14-7.51-13.87-17.22-22-24.73-10.06-9.3-22.71-13.57-36.26-14.12C99,357.66,86,360.13,73.51,362.75c-11.57,2.42-23.72,6-32.4,14.49a35.68,35.68,0,0,0-5.74,7.38c-2,3.39-.88,8.37,2.7,10.26a7.63,7.63,0,0,0,10.26-2.69Z" transform="translate(-34.39 -32.69)"/><path class="cls-1" d="M220.32,538.56c0-.69,0-1.37,0-2.06s.42-.61-.08.48a4.4,4.4,0,0,0,.14-.74,18.84,18.84,0,0,1,.52-2l.25-.72c.55-1.64-.75,1.46,0-.09a31.52,31.52,0,0,1,1.79-3.15,11.12,11.12,0,0,1,1.22-1.72c-.13.13-1.07,1.28-.18.27.29-.34.57-.68.87-1a56.6,56.6,0,0,1,6-5.73c.57-.48,1.14-1,1.72-1.41l.65-.52c.82-.67-1.05.78-.2.15,1.18-.89,2.37-1.77,3.59-2.61A104.61,104.61,0,0,1,251.75,509c.32-.15,3.53-1.62,3.54-1.6s-1.36.57-.25.12l1-.42,2.33-.91c2.7-1,5.43-1.91,8.19-2.71s5.55-1.51,8.37-2.1,5.75-.77,8.5-1.49c-1.9.49.16,0,.76-.08l2.22-.24c1.56-.15,3.13-.26,4.7-.35q4.71-.27,9.43-.19c3.14.05,6.28.22,9.42.49,1.51.13,3,.29,4.54.47l1.21.15-.49-.06a19.26,19.26,0,0,1,2.71.4,151.91,151.91,0,0,1,18.73,4.25c3,.89,6,1.87,9,2.94,1.44.52,2.87,1.05,4.29,1.61l2.26.91.85.34c.86.35-1.17-.5.15.07,6.2,2.67,12.35,5.62,18.85,7.49a48.15,48.15,0,0,0,20.74,1.29c6.46-1,12.55-3.38,18.49-6,5.55-2.47,10.91-5.34,16.4-7.93,1.37-.64,2.74-1.27,4.13-1.88.64-.28,1.28-.59,1.94-.84-1.46.55-.42.18-.11,0l1.4-.57q4.35-1.75,8.8-3.23a123.17,123.17,0,0,1,18.42-4.62l2.08-.32c1.42-.22,0,0-.21,0,.39-.07.81-.1,1.2-.14,1.59-.19,3.19-.34,4.79-.45,3-.19,5.91-.26,8.86-.17s5.57.52,8.36.67c-2.05-.11.11,0,.68.12s1.42.24,2.13.38c1.42.27,2.83.57,4.22.92a76,76,0,0,1,8,2.44c.59.21,1.18.44,1.76.67a9.31,9.31,0,0,1,1,.4c-1.51-.8-.68-.29-.31-.12,1.3.6,2.6,1.19,3.87,1.85a63.13,63.13,0,0,1,7.11,4.27c.59.41,1.17.82,1.74,1.25a5,5,0,0,0,.65.48c-1.18-.55-.71-.55-.26-.18,1.13.93,2.23,1.87,3.3,2.87,4.4,4.1,8.21,8.77,12.39,13.09a67.06,67.06,0,0,0,6.51,6,8.15,8.15,0,0,0,5.3,2.19,7.65,7.65,0,0,0,5.31-2.19c2.49-2.72,3.27-8,0-10.61-4.79-3.81-8.8-8.43-12.92-12.93A85.23,85.23,0,0,0,523.38,492a78.05,78.05,0,0,0-33.22-12.61,106.08,106.08,0,0,0-39.83,2.18c-12.95,3.11-25.17,8.42-37.06,14.34-2.8,1.39-5.61,2.79-8.46,4.09l-2.14.95c-.43.19-1,.7.18-.07a5.73,5.73,0,0,1-.81.33c-1.52.61-3.06,1.18-4.62,1.69s-2.92.91-4.4,1.27c-.65.15-1.3.3-1.95.42l-1.11.21c-1.42.25-.38-.23,0,0a9.05,9.05,0,0,0-2.26.22c-.76.05-1.52.07-2.28.08s-1.34,0-2-.05l-1.19-.08c-.92-.08-1.05.06-.08,0a18.37,18.37,0,0,1-4.66-.94c-1.54-.39-3.06-.86-4.56-1.38s-3-1.1-4.5-1.7c-.45-.19-2.62-1-1-.41-.76-.26-1.49-.64-2.22-1-6.36-2.77-12.73-5.47-19.31-7.66-25.15-8.35-52.62-10.53-78.48-4.19a118,118,0,0,0-34,14.15c-10.65,6.61-21.91,15.17-26.57,27.21a24.08,24.08,0,0,0-1.57,9.46c.13,3.92,3.35,7.69,7.5,7.5,3.94-.17,7.64-3.3,7.5-7.5Z" transform="translate(-34.39 -32.69)"/></svg>