<svg id="Layer_1" data-name="Layer 1" xmlns="http://www.w3.org/2000/svg" viewBox="0 0 137 104.05"><defs><style>.cls-1{fill:#7289da;}</style></defs><path class="cls-1" d="M106.65,40.37C101.9,34.41,94.23,29,85.3,24.25c-3.64-1.91-7.48-3.7-11.42-5.35-17.12-7.12-36-11.47-47.49-11.47a45.19,45.19,0,0,0,0,90.38,76.35,76.35,0,0,0,10.89-.91,156,156,0,0,0,23.3-5.44,157.33,157.33,0,0,0,24.54-9.85c9-4.59,16.75-10,21.52-15.9a97.7,97.7,0,0,1,0-25.34Zm-93,12.7A13.24,13.24,0,1,1,26.85,39.84,13.23,13.23,0,0,1,13.61,53.07Z" transform="translate(18.8 -0.41)"/><path class="cls-1" d="M106.64,65.71a92.27,92.27,0,0,0,11.45,34.07,4.45,4.45,0,0,1-2.56-.61L85.12,81.61,42.34,56.92a4.54,4.54,0,0,1,0-7.87l43-24.8L115.53,6.8a4.42,4.42,0,0,1,2.67-.61,92.15,92.15,0,0,0-11.55,34.18,97.7,97.7,0,0,0,0,25.34Z" transform="translate(18.8 -0.41)"/><path class="cls-1" d="M78.14,102a50.74,50.74,0,0,1-34.48-5.57c-1.12-.61-2.24-1.27-3.38-1.93A119,119,0,0,0,63.58,87C68.57,91.77,73.42,96.8,78.14,102Z" transform="translate(18.8 -0.41)"/><path class="cls-1" d="M77.74,100.59a47.92,47.92,0,0,1-18.64,0A59.53,59.53,0,0,1,41,93.25L40.67,96A121.67,121.67,0,0,0,64.34,88.3l-1.82-.24c5,4.83,9.88,9.86,14.56,15,1.29,1.43,3.41-.69,2.12-2.12-4.68-5.18-9.52-10.21-14.56-15a1.56,1.56,0,0,0-1.81-.24,117.48,117.48,0,0,1-22.95,7.4,1.51,1.51,0,0,0-.36,2.74,61.64,61.64,0,0,0,19.22,7.69,51.67,51.67,0,0,0,19.79,0C80.43,103.11,79.63,100.22,77.74,100.59Z" transform="translate(18.8 -0.41)"/><path class="cls-1" d="M68.34,90.16q-2.2-1.51-4.45-3a1.5,1.5,0,0,0-2,.53,1.55,1.55,0,0,0,.54,2.06q2.23,1.47,4.45,3a1.5,1.5,0,0,0,2-.54,1.54,1.54,0,0,0-.54-2Z" transform="translate(18.8 -0.41)"/><path class="cls-1" d="M28.28,95.57c5.33-1.5,10.72.77,15.6,2.77a1.5,1.5,0,0,0,1.84-1,1.53,1.53,0,0,0-1-1.85C39.25,93.21,33.39,91,27.48,92.68a1.5,1.5,0,0,0,.8,2.89Z" transform="translate(18.8 -0.41)"/><path class="cls-1" d="M10.94,19.68A154.75,154.75,0,0,0,37.32,6.88c3.81-2.32,7.79-4.89,12.25-5,5-.08,9.39,2.93,13.35,5.94,6.86,5.22,13.49,11.82,19.77,17.73" transform="translate(18.8 -0.41)"/><path class="cls-1" d="M11.34,21.12a158.27,158.27,0,0,0,15.31-6.64c4.89-2.43,9.52-5.25,14.22-8a21.73,21.73,0,0,1,7-2.91,12.44,12.44,0,0,1,7.44,1.16C60,6.93,64.12,10.57,68,14c4.68,4.08,9.11,8.43,13.63,12.68,1.41,1.32,3.53-.8,2.12-2.12-4.18-3.94-8.29-7.95-12.59-11.77-4-3.58-8.27-7.32-13-9.92A18.41,18.41,0,0,0,50.84.46,16.11,16.11,0,0,0,43,2a59.21,59.21,0,0,0-6.87,3.83q-3.78,2.3-7.7,4.36a151.29,151.29,0,0,1-17.92,8c-1.79.67-1,3.57.8,2.89Z" transform="translate(18.8 -0.41)"/></svg>