<svg id="Layer_1" data-name="Layer 1" xmlns="http://www.w3.org/2000/svg" viewBox="0 0 1201.05 269.6"><defs><style>.cls-1,.cls-3{fill:#7289da;}.cls-2{isolation:isolate;}.cls-3{stroke:#7289da;stroke-miterlimit:10;stroke-width:13px;}</style></defs><path class="cls-1" d="M144,386.3c-7.8,0-13.9,6.7-13.9,15s6.3,15,13.9,15c7.8,0,13.9-6.7,13.9-15S151.6,386.3,144,386.3Zm-49.6,0c-7.8,0-13.9,6.7-13.9,15s6.3,15,13.9,15c7.8,0,13.9-6.7,13.9-15S102.1,386.3,94.4,386.3Z" transform="translate(0 -273.2)"/><path class="cls-1" d="M210.1,273.2H27.9A27.91,27.91,0,0,0,0,301.1V483.3a27.91,27.91,0,0,0,27.9,27.9H182.1l-7.2-24.9,17.4,16,16.5,15.1,29.4,25.4V301.1A28.21,28.21,0,0,0,210.1,273.2ZM157.6,449.3s-4.9-5.8-9-10.9c17.8-5,24.6-16,24.6-16a74.7,74.7,0,0,1-15.6,8,92.81,92.81,0,0,1-19.7,5.8,96.32,96.32,0,0,1-35.2-.1,104.44,104.44,0,0,1-20-5.8,78.11,78.11,0,0,1-9.9-4.6c-.4-.3-.8-.4-1.2-.7-.3-.1-.4-.3-.5-.3-2.4-1.4-3.8-2.3-3.8-2.3s6.5,10.7,23.8,15.9C87,443.5,82,449.5,82,449.5c-30.1-1-41.5-20.5-41.5-20.5,0-43.4,19.6-78.6,19.6-78.6C79.6,335.7,98,336.2,98,336.2l1.4,1.6c-24.5,6.9-35.6,17.7-35.6,17.7s3-1.6,8-3.8a108.83,108.83,0,0,1,30.9-8.6,18.1,18.1,0,0,1,2.3-.3,111.75,111.75,0,0,1,68.4,12.6s-10.7-10.2-33.9-17.1l1.9-2.2s18.6-.4,38.1,14.1c0,0,19.6,35.2,19.6,78.6C199.1,428.8,187.7,448.3,157.6,449.3Z" transform="translate(0 -273.2)"/><g class="cls-2"><path class="cls-3" d="M341.52,346h14v72.31c0,28.7-14.11,37.52-32.71,37.52a45,45,0,0,1-14.91-2.57l2.08-11.38a33.38,33.38,0,0,0,11.71,2.08c12.5,0,19.88-5.61,19.88-26.77Z" transform="translate(0 -273.2)"/><path class="cls-3" d="M407.1,420l-11.22,34H381.45L418.16,346H435L471.88,454H457l-11.55-34Zm35.43-10.9L432,378c-2.4-7-4-13.46-5.61-19.72H426c-1.6,6.42-3.37,13-5.45,19.56L410,409.14Z" transform="translate(0 -273.2)"/><path class="cls-3" d="M513.89,454,478.61,346h15.08l16.83,53.23c4.65,14.59,8.66,27.74,11.55,40.4h.32c3-12.5,7.53-26.13,12.34-40.24L553,346h14.91L529.28,454Z" transform="translate(0 -273.2)"/><path class="cls-3" d="M598.87,420l-11.22,34H573.22L609.94,346h16.83L663.65,454H648.74l-11.55-34Zm35.44-10.9L623.73,378c-2.41-7-4-13.46-5.62-19.72h-.32c-1.6,6.42-3.36,13-5.45,19.56l-10.58,31.27Z" transform="translate(0 -273.2)"/><path class="cls-3" d="M688.51,437a49.39,49.39,0,0,0,25,7c14.27,0,22.61-7.53,22.61-18.44,0-10.1-5.78-15.87-20.37-21.48-17.63-6.25-28.54-15.39-28.54-30.63,0-16.83,13.95-29.34,35-29.34,11.06,0,19.08,2.57,23.89,5.29l-3.85,11.39a43,43,0,0,0-20.52-5.13c-14.75,0-20.37,8.82-20.37,16.19,0,10.1,6.58,15.07,21.49,20.84,18.28,7.06,27.58,15.88,27.58,31.75,0,16.68-12.35,31.11-37.84,31.11-10.42,0-21.81-3.05-27.58-6.9Z" transform="translate(0 -273.2)"/><path class="cls-3" d="M855.9,450.51c-5.13,2.56-15.39,5.13-28.54,5.13C796.9,455.64,774,436.4,774,401c0-33.83,22.93-56.76,56.44-56.76,13.47,0,22,2.89,25.65,4.81L852.7,360.4a50.79,50.79,0,0,0-21.81-4.49c-25.33,0-42.17,16.19-42.17,44.57,0,26.46,15.23,43.45,41.53,43.45,8.5,0,17.15-1.76,22.77-4.49Z" transform="translate(0 -273.2)"/><path class="cls-3" d="M884.28,347.41a145.61,145.61,0,0,1,26.78-2.25c14.91,0,24.53,2.73,31.27,8.82,5.45,4.81,8.49,12.19,8.49,20.53,0,14.27-9,23.73-20.36,27.57v.49c8.34,2.88,13.31,10.58,15.88,21.8,3.52,15.07,6.09,25.5,8.33,29.66H940.24c-1.76-3-4.17-12.34-7.21-25.81-3.21-14.91-9-20.52-21.65-21H898.23V454h-14Zm14,49.22H912.5c14.92,0,24.38-8.17,24.38-20.52,0-13.95-10.11-20-24.86-20.2-6.73,0-11.54.64-13.79,1.28Z" transform="translate(0 -273.2)"/><path class="cls-3" d="M995.4,346V454H981.45V346Z" transform="translate(0 -273.2)"/><path class="cls-3" d="M1030.68,347.25a161.75,161.75,0,0,1,26.77-2.09c13.79,0,23.89,3.21,30.31,9,5.93,5.13,9.46,13,9.46,22.61,0,9.78-2.89,17.48-8.34,23.09-7.38,7.86-19.4,11.86-33,11.86a48,48,0,0,1-11.22-1V454h-14Zm14,52.11a46.8,46.8,0,0,0,11.54,1.12c16.84,0,27.1-8.18,27.1-23.09,0-14.27-10.1-21.16-25.5-21.16a58.56,58.56,0,0,0-13.14,1.12Z" transform="translate(0 -273.2)"/><path class="cls-3" d="M1147.41,357.83h-32.87V346h80v11.86h-33V454h-14.11Z" transform="translate(0 -273.2)"/></g></svg>